<?xml version="1.0" standalone="no"?>
<!DOCTYPE svg PUBLIC "-//W3C//DTD SVG 20010904//EN"
 "http://www.w3.org/TR/2001/REC-SVG-20010904/DTD/svg10.dtd">
<svg version="1.0" xmlns="http://www.w3.org/2000/svg"
 width="750.000000pt" height="1000.000000pt" viewBox="0 0 750.000000 1000.000000"
 preserveAspectRatio="xMidYMid meet">

<g transform="translate(0.000000,1000.000000) scale(0.100000,-0.100000)"
fill="#000000" stroke="none">
<path d="M3650 7553 c-188 -31 -316 -78 -433 -160 -221 -155 -320 -293 -418
-578 -50 -147 -57 -223 -39 -424 10 -112 20 -165 42 -227 33 -92 116 -231 190
-316 41 -48 192 -165 263 -204 15 -8 20 -22 20 -49 l0 -38 -215 -1 c-214 -2
-215 -2 -302 -34 -108 -39 -157 -64 -183 -92 -11 -12 -49 -39 -85 -60 -36 -21
-97 -65 -136 -97 -127 -103 -258 -212 -313 -261 -30 -26 -73 -60 -95 -77 -23
-16 -87 -75 -141 -131 -55 -55 -120 -114 -145 -130 -25 -16 -79 -56 -121 -89
-42 -33 -93 -73 -113 -88 -20 -15 -36 -35 -36 -43 0 -25 -46 -87 -107 -144
-65 -61 -241 -277 -267 -327 -53 -105 -41 -204 38 -321 29 -42 100 -147 158
-233 58 -86 120 -176 137 -200 18 -24 62 -89 98 -144 81 -123 251 -354 307
-416 59 -66 112 -142 120 -173 4 -15 11 -24 17 -21 5 4 7 15 4 26 -5 14 -2 17
8 13 13 -5 13 0 3 30 -7 20 -15 39 -19 42 -4 4 -7 15 -7 23 0 17 -96 165 -144
221 -14 17 -26 41 -26 52 0 11 -18 37 -41 59 -22 21 -54 65 -71 96 -17 32 -46
74 -65 93 -20 19 -57 67 -84 105 -27 39 -56 79 -64 90 -9 11 -39 56 -68 101
-102 158 -123 188 -213 287 -35 38 -72 51 -60 21 5 -14 4 -15 -8 -5 -21 17
-39 106 -32 152 9 57 36 120 49 112 6 -3 7 -1 3 5 -4 7 19 42 53 82 34 39 61
74 61 79 0 5 45 55 99 110 55 56 108 113 118 127 33 44 57 26 171 -129 13 -18
32 -41 42 -52 10 -11 24 -33 30 -50 10 -27 8 -31 -23 -60 -19 -16 -56 -54 -82
-82 l-47 -53 17 -37 c10 -21 19 -60 20 -86 1 -29 7 -52 15 -57 9 -6 14 -29 14
-68 1 -53 3 -59 19 -56 14 2 23 -7 34 -36 9 -22 22 -40 30 -40 7 0 18 -11 23
-24 5 -13 13 -27 19 -30 9 -6 71 -129 71 -143 0 -3 34 -66 75 -139 79 -138
148 -240 230 -338 22 -26 53 -65 115 -144 22 -29 49 -57 59 -64 16 -10 17 -14
5 -37 -30 -56 -94 -195 -94 -203 0 -4 6 -8 13 -8 14 0 107 183 107 210 0 11
12 15 45 16 35 1 54 9 97 42 142 109 186 176 199 307 4 43 8 255 8 470 -1 435
-2 482 -13 507 -6 12 -3 20 9 24 13 5 14 9 3 15 -21 14 -23 12 -56 -41 -28
-45 -29 -50 -12 -50 10 0 21 -4 24 -8 3 -5 -8 -6 -24 -4 -17 2 -38 1 -47 -4
-29 -13 -83 -13 -76 0 4 6 28 45 54 86 78 125 71 133 -31 32 -51 -51 -100 -92
-109 -92 -12 0 -13 -2 -3 -9 10 -6 4 -14 -22 -29 l-36 -21 0 22 c0 12 30 62
68 110 37 48 72 98 79 109 19 35 2 43 -19 9 -11 -17 -24 -28 -29 -25 -5 3 -7
10 -4 15 4 5 2 9 -4 9 -6 0 -31 -33 -57 -72 -132 -205 -157 -239 -182 -255
-15 -9 -41 -29 -58 -45 -16 -15 -55 -37 -85 -48 -40 -14 -54 -24 -52 -37 2
-22 -109 93 -131 136 -15 28 -14 29 4 24 11 -3 31 -19 45 -35 14 -16 25 -26
25 -21 0 16 -90 184 -129 241 -39 57 -77 116 -96 147 -19 32 -76 103 -124 154
-12 14 -30 39 -37 54 -8 15 -26 32 -41 38 -22 8 -23 12 -12 25 7 9 37 31 65
49 29 19 58 43 64 54 6 12 17 21 25 21 22 0 213 159 335 280 62 61 147 137
189 168 42 31 101 80 132 108 79 73 238 190 282 209 20 8 44 27 53 41 21 32
122 83 234 119 67 21 95 25 135 20 28 -4 55 -6 60 -5 6 0 75 2 155 4 145 3
145 3 148 27 2 13 9 30 14 37 7 8 7 12 -1 12 -6 0 -11 12 -11 27 0 56 -34 161
-80 243 -55 101 -67 130 -75 190 -4 33 -3 41 4 30 6 -8 11 -24 11 -35 0 -25
32 -118 46 -137 27 -34 84 -149 84 -168 0 -12 4 -18 10 -15 13 8 6 33 -31 110
-49 101 -99 284 -98 360 l1 50 9 -39 c16 -70 20 -53 18 77 -2 69 0 130 4 134
4 3 7 -11 8 -33 0 -29 2 -34 8 -20 7 18 8 18 14 -5 10 -35 9 -39 -9 -39 -8 0
-12 -5 -9 -10 3 -6 8 -38 10 -73 6 -94 11 -126 20 -135 4 -4 4 3 1 16 -5 13
-3 22 3 22 7 0 11 -23 11 -55 0 -36 4 -54 11 -52 7 1 16 -12 21 -30 4 -18 14
-35 20 -39 8 -5 9 -2 4 12 -5 10 -12 57 -17 104 -5 47 -12 92 -15 100 -3 9 -2
11 4 5 12 -14 49 -111 61 -160 17 -72 95 -290 99 -274 1 9 -15 69 -38 134 -22
65 -40 127 -40 137 0 10 -12 47 -26 81 -15 34 -30 76 -34 92 -4 17 -11 39 -16
50 -7 18 -6 18 9 6 9 -7 17 -23 17 -34 0 -11 6 -28 14 -36 7 -9 27 -63 45
-120 17 -58 34 -107 37 -110 4 -3 3 5 0 19 l-7 25 18 -23 c10 -12 34 -53 53
-90 19 -37 42 -78 51 -92 9 -14 22 -47 29 -75 10 -36 27 -63 59 -95 48 -47 47
-43 -9 27 -18 24 -31 46 -27 49 3 4 18 -9 34 -27 44 -55 122 -129 135 -129 7
0 -6 17 -28 38 -42 37 -122 131 -160 187 -44 65 -134 234 -133 251 0 12 4 8
11 -11 27 -72 188 -287 188 -249 0 6 -5 15 -11 21 -19 19 9 26 41 9 45 -22 36
-1 -15 36 -112 81 -142 108 -164 149 l-24 44 74 -71 c62 -60 87 -76 158 -103
98 -38 166 -48 213 -32 44 15 161 85 221 133 65 50 102 99 127 166 12 32 32
74 46 95 14 21 24 43 22 49 -5 13 -63 -76 -73 -112 -31 -103 -103 -179 -256
-267 -92 -53 -95 -54 -159 -50 -179 12 -358 153 -447 352 -66 150 -76 167
-118 210 -49 49 -80 128 -71 180 4 18 20 50 36 70 33 42 42 71 10 34 l-20 -24
5 30 c5 30 5 29 -11 -5 -9 -19 -24 -49 -33 -67 -13 -27 -13 -41 -3 -91 7 -32
12 -74 11 -93 l-1 -34 -16 35 c-11 25 -15 65 -15 140 0 116 17 172 84 287 43
71 115 147 135 139 8 -3 14 -1 14 4 0 8 110 70 125 70 3 0 5 -8 5 -17 0 -10 5
-25 11 -33 7 -11 8 -5 4 21 l-7 35 77 23 c108 31 191 40 248 25 55 -14 60 -10
15 11 l-33 15 40 -6 c50 -7 178 -57 216 -85 16 -11 34 -29 39 -39 9 -16 8 -19
-7 -13 -15 5 -14 2 4 -18 19 -20 53 -97 53 -117 0 -3 -12 6 -27 20 -31 29 -92
62 -100 54 -3 -2 12 -14 34 -24 21 -11 48 -29 59 -40 26 -25 48 -111 41 -157
-4 -24 -1 -38 13 -50 12 -10 20 -12 23 -5 3 6 4 5 3 -2 -2 -7 5 -24 15 -37 11
-13 19 -31 19 -41 0 -9 9 -46 19 -81 68 -232 68 -355 -3 -446 -40 -52 -43 -72
-20 -144 14 -41 15 -72 9 -172 -14 -230 -15 -323 -4 -307 8 11 9 3 4 -30 -3
-25 -10 -49 -16 -54 -5 -6 -9 -15 -9 -20 1 -6 9 -1 20 12 10 12 21 18 24 13 4
-5 -1 -16 -9 -25 -9 -9 -15 -21 -14 -28 2 -15 -33 -98 -42 -98 -3 0 -5 10 -5
21 1 12 -5 24 -11 26 -7 3 -13 -3 -13 -14 -1 -17 -2 -17 -17 2 -13 16 -15 17
-10 3 9 -26 1 -23 -49 18 -24 20 -44 32 -44 26 0 -31 181 -134 195 -111 4 5
10 7 15 4 4 -3 10 2 14 10 3 8 1 17 -4 20 -12 8 -1 116 13 130 6 7 8 -3 4 -29
-4 -22 -3 -35 2 -30 13 14 19 76 10 104 -7 23 -7 24 -8 3 -1 -16 -6 -21 -16
-17 -13 5 -15 25 -11 120 3 66 1 114 -4 114 -6 0 -6 9 -1 23 8 19 29 202 48
427 11 122 12 345 2 400 -6 30 -14 89 -19 130 -5 41 -12 86 -16 100 l-7 25 26
-27 c14 -15 29 -38 33 -50 3 -13 13 -32 22 -43 l14 -20 -7 20 c-4 11 -11 32
-15 47 -4 14 -17 35 -29 47 -12 12 -21 27 -21 34 1 7 6 5 14 -5 14 -19 32 -25
21 -8 -3 6 -2 10 3 10 10 0 32 -44 32 -64 0 -8 7 -19 16 -27 9 -8 13 -21 10
-35 -9 -34 18 -135 49 -188 27 -47 48 -59 24 -14 -7 12 -11 42 -10 66 1 23 -2
42 -7 42 -5 0 -7 -15 -4 -32 3 -22 1 -30 -6 -23 -5 6 -12 30 -14 55 -3 25 -8
54 -12 65 -6 16 -6 17 3 5 21 -29 11 10 -15 60 -14 27 -24 55 -22 61 13 38 91
-193 113 -331 3 -22 19 -50 41 -73 23 -24 30 -35 18 -31 -48 18 36 -50 103
-83 40 -20 71 -38 69 -40 -3 -3 -94 36 -127 54 -3 2 2 -34 12 -79 10 -46 18
-96 19 -113 0 -16 11 -43 24 -58 l23 -28 25 33 c14 18 46 74 71 123 25 50 46
86 46 82 2 -19 -101 -205 -124 -227 l-24 -23 -21 24 -20 24 7 -35 c3 -19 9
-36 13 -38 4 -1 4 -22 -1 -45 -4 -23 -8 -49 -8 -57 -1 -13 0 -13 9 0 11 18 4
-190 -11 -318 -13 -110 -2 -149 56 -200 l45 -40 -37 -15 c-43 -17 -53 -14
-105 38 -21 20 -38 31 -38 25 0 -6 18 -28 40 -47 22 -20 37 -40 33 -46 -3 -5
-10 -3 -15 7 -12 22 -27 20 -21 -2 3 -12 -4 -22 -21 -30 l-25 -11 27 -60 c27
-60 69 -103 164 -171 59 -41 74 -34 20 9 -44 34 -67 79 -59 113 4 13 27 51 52
86 25 34 43 67 40 73 -9 14 73 0 110 -19 109 -55 342 -246 389 -321 13 -20 58
-76 100 -124 42 -49 76 -92 76 -97 0 -5 12 -23 28 -41 15 -18 68 -99 117 -179
106 -173 158 -241 281 -370 49 -52 103 -113 119 -135 16 -22 48 -61 71 -86 23
-25 53 -64 67 -86 14 -22 42 -50 61 -63 20 -12 36 -26 36 -31 0 -5 -21 -19
-47 -32 -74 -36 -195 -118 -233 -157 -3 -3 -36 -30 -75 -60 -129 -101 -295
-256 -295 -275 0 -8 -13 -30 -30 -48 -35 -41 -40 -59 -7 -31 30 27 74 54 88
54 6 0 -16 -20 -49 -45 -90 -68 -101 -66 -230 56 -59 56 -107 104 -107 108 0
3 -16 31 -36 61 -48 75 -86 135 -165 268 -37 61 -71 112 -77 112 -5 0 2 -15
17 -34 14 -19 26 -38 26 -43 0 -11 147 -252 167 -275 25 -28 -143 67 -204 114
-88 70 -109 81 -132 68 -12 -6 -27 -24 -36 -39 -29 -57 -65 -206 -80 -330 -26
-220 -40 -253 -118 -293 -23 -11 -61 -38 -84 -59 -32 -30 -51 -39 -77 -39 -39
0 -62 -26 -51 -59 10 -32 185 -181 212 -181 22 0 17 6 -33 44 -33 24 -81 64
-108 88 -44 40 -48 46 -37 66 8 15 21 22 42 22 24 0 41 11 73 44 22 23 62 55
89 70 46 26 76 68 90 126 3 14 13 84 21 155 9 72 28 175 44 230 24 86 31 102
55 113 35 17 55 10 113 -38 26 -21 82 -58 126 -81 49 -26 89 -56 106 -79 15
-20 82 -89 148 -153 89 -86 128 -117 147 -117 13 0 48 16 76 35 57 39 118 75
128 75 16 0 -69 -77 -157 -143 -52 -39 -122 -94 -155 -122 -88 -74 -160 -125
-255 -179 -47 -27 -110 -67 -140 -90 l-55 -41 -88 1 c-87 1 -89 1 -114 32 -38
50 -63 39 -63 -29 0 -18 5 -29 14 -29 8 0 16 -5 18 -10 6 -20 91 -19 166 0 46
12 100 37 148 67 41 26 103 66 137 87 121 76 196 129 223 157 15 16 33 29 39
29 6 0 26 15 44 34 18 18 57 46 88 62 32 17 82 58 121 99 37 39 70 69 74 68
12 -4 21 38 10 49 -6 6 -21 4 -41 -7 -17 -9 -36 -13 -40 -10 -5 3 -22 0 -37
-5 -15 -6 -29 -8 -32 -6 -10 11 36 65 96 115 51 43 66 50 78 41 22 -19 17 -59
-12 -85 -19 -17 -22 -25 -12 -25 8 0 36 22 61 49 35 37 47 59 52 94 10 62 38
105 83 123 81 33 125 60 153 95 17 22 45 43 66 50 36 11 38 11 66 -22 16 -19
41 -59 55 -89 13 -30 31 -62 38 -70 7 -8 22 -39 33 -68 19 -47 20 -62 12 -129
-8 -68 -13 -79 -47 -114 -23 -23 -61 -48 -94 -60 -30 -11 -70 -29 -89 -40 -19
-11 -44 -18 -55 -15 -11 3 -26 0 -33 -6 -9 -7 -13 -7 -13 0 0 6 -7 9 -16 5 -8
-3 -13 -12 -10 -19 4 -10 -2 -12 -24 -7 -35 7 -40 -4 -7 -17 21 -8 21 -9 -10
-21 -18 -8 -33 -18 -33 -24 0 -18 -127 -128 -197 -172 -38 -23 -126 -74 -196
-114 -150 -85 -149 -86 28 -96 l111 -6 79 43 c44 24 125 74 181 111 83 55 313
186 437 249 83 42 109 107 82 210 -26 98 -91 259 -131 326 -70 115 -76 131
-69 187 6 59 2 68 -42 90 -17 9 -42 31 -54 49 -42 60 -152 192 -259 308 -58
63 -119 133 -135 155 -16 22 -41 54 -55 70 -15 17 -42 57 -60 90 -45 83 -190
298 -250 370 -27 33 -70 90 -95 127 -33 49 -75 91 -153 153 -188 150 -276 206
-366 232 -56 16 -90 32 -111 53 -34 34 -31 -14 -22 395 l4 190 37 50 c50 64
119 204 159 318 30 87 32 100 32 237 0 196 -26 291 -128 474 -90 161 -182 262
-341 375 -138 98 -204 131 -370 187 -130 44 -132 44 -266 43 -74 -1 -146 -4
-160 -6z m843 -963 c3 -11 1 -20 -4 -20 -5 0 -9 9 -9 20 0 11 2 20 4 20 2 0 6
-9 9 -20z m404 -162 c-2 -29 -3 -8 -3 47 0 55 1 79 3 53 2 -26 2 -71 0 -100z
m-10 -100 c-3 -8 -6 -5 -6 6 -1 11 2 17 5 13 3 -3 4 -12 1 -19z m-16 -59 c-5
-13 -10 -19 -10 -12 -1 15 10 45 15 40 3 -2 0 -15 -5 -28z m-1744 -96 c-2 -21
-4 -6 -4 32 0 39 2 55 4 38 2 -18 2 -50 0 -70z m-10 -115 c-2 -13 -4 -5 -4 17
-1 22 1 32 4 23 2 -10 2 -28 0 -40z m-1378 -2181 c37 -75 162 -217 190 -217
19 0 87 45 136 90 17 15 48 33 70 40 22 7 48 19 58 28 9 8 17 12 17 7 0 -4 10
-1 23 7 12 8 47 21 77 28 86 20 153 42 178 58 18 12 28 12 47 4 51 -23 51 -24
45 -492 l-5 -435 -32 -67 c-34 -72 -91 -135 -170 -187 -84 -56 -128 -39 -234
89 -183 221 -322 437 -398 622 -21 51 -60 143 -87 203 -30 69 -49 130 -52 162
-4 51 -3 54 37 94 22 22 46 39 53 37 7 -2 28 -34 47 -71z m-559 -351 c0 -5
-20 17 -45 50 -24 32 -45 63 -45 68 0 5 20 -17 45 -50 24 -32 45 -63 45 -68z
m5083 64 c-5 -19 -23 -39 -23 -25 0 9 20 45 24 45 2 0 2 -9 -1 -20z m-4967
-235 c25 -36 45 -68 42 -70 -2 -2 -25 27 -51 66 -27 38 -46 69 -43 69 3 0 26
-29 52 -65z m85 -122 c13 -16 12 -17 -3 -4 -17 13 -22 21 -14 21 2 0 10 -8 17
-17z m140 -205 c16 -29 2 -21 -22 15 -17 23 -18 28 -6 18 10 -8 23 -23 28 -33z
m49 -70 c16 -22 30 -46 30 -51 0 -11 -43 42 -61 76 -18 32 1 17 31 -25z m230
-298 c12 -16 19 -30 16 -30 -2 0 -14 14 -26 30 -12 17 -19 30 -16 30 2 0 14
-13 26 -30z"/>
<path d="M3780 7120 c0 -5 5 -10 11 -10 5 0 7 5 4 10 -3 6 -8 10 -11 10 -2 0
-4 -4 -4 -10z"/>
<path d="M3760 7090 c6 -11 12 -20 14 -20 2 0 2 9 -1 20 -3 11 -9 20 -15 20
-5 0 -4 -9 2 -20z"/>
<path d="M3887 7079 c18 -18 35 -30 38 -27 3 3 -11 18 -32 33 l-38 28 32 -34z"/>
<path d="M3492 7020 c0 -19 2 -27 5 -17 2 9 2 25 0 35 -3 9 -5 1 -5 -18z"/>
<path d="M4040 7036 c0 -2 14 -14 30 -26 17 -12 30 -18 30 -13 0 5 -13 17 -30
26 -16 10 -30 16 -30 13z"/>
<path d="M3360 6965 c-7 -9 -10 -18 -7 -21 3 -3 10 4 17 15 13 25 8 27 -10 6z"/>
<path d="M3397 6963 c-4 -3 -6 -22 -6 -42 l1 -36 8 40 c8 42 8 49 -3 38z"/>
<path d="M3911 6920 c-24 -17 -38 -30 -31 -30 8 0 23 9 34 19 12 11 37 24 56
29 29 9 31 10 10 11 -14 0 -45 -13 -69 -29z"/>
<path d="M3305 6887 c-11 -18 -18 -38 -17 -45 2 -7 -9 -34 -23 -58 -15 -25
-24 -48 -21 -51 4 -5 31 48 79 154 16 36 3 36 -18 0z"/>
<path d="M3511 6879 c0 -20 2 -57 5 -83 6 -41 11 -49 39 -60 34 -14 75 -63 75
-89 0 -9 5 -19 11 -23 8 -5 10 1 6 18 -6 23 -4 25 29 23 20 -2 41 -10 49 -21
19 -25 19 -15 0 30 -8 20 -11 36 -6 36 5 0 12 -13 16 -29 9 -41 68 -106 118
-130 60 -29 143 -44 170 -30 56 29 107 129 107 211 0 126 -67 190 -164 158
-48 -15 -53 -27 -25 -56 l23 -24 -22 -22 c-20 -20 -25 -21 -54 -10 -18 7 -34
8 -38 3 -6 -10 -50 22 -50 37 0 5 -6 12 -14 15 -22 9 -7 -31 20 -52 37 -29 28
-35 -13 -11 l-38 22 30 -26 c43 -37 26 -40 -30 -5 -48 31 -48 17 -1 -23 31
-25 11 -33 -21 -8 l-28 22 -3 -41 c-2 -23 -8 -41 -13 -41 -17 0 -65 28 -80 46
-8 9 -27 23 -44 30 -28 11 -31 17 -41 91 -7 48 -12 64 -13 42z m547 -291 c5
-26 -34 -58 -69 -58 -45 0 -109 21 -109 35 0 24 29 39 53 28 17 -8 29 -7 48 3
31 18 73 14 77 -8z"/>
<path d="M4104 6871 c35 -37 53 -117 38 -178 -6 -27 -13 -57 -17 -68 -4 -14
-2 -12 9 5 8 14 20 49 27 79 9 46 8 62 -7 110 -21 66 -27 74 -54 76 -19 2 -19
0 4 -24z"/>
<path d="M3840 6837 c0 -9 10 -22 23 -28 l22 -12 -20 24 c-11 13 -21 26 -22
28 -2 2 -3 -3 -3 -12z"/>
<path d="M3900 6825 c7 -8 17 -15 22 -15 6 0 5 7 -2 15 -7 8 -17 15 -22 15 -6
0 -5 -7 2 -15z"/>
<path d="M3580 6801 c0 -5 5 -13 10 -16 6 -3 10 -2 10 4 0 5 -4 13 -10 16 -5
3 -10 2 -10 -4z"/>
<path d="M3312 6750 c-24 -31 -28 -45 -12 -35 10 6 44 65 37 65 -2 0 -13 -13
-25 -30z"/>
<path d="M3600 6754 c0 -13 48 -59 55 -52 3 2 -9 17 -25 33 -17 16 -30 24 -30
19z"/>
<path d="M3520 6720 c0 -5 7 -10 15 -10 8 0 15 -5 15 -11 0 -5 -5 -7 -10 -4
-6 3 -12 -1 -15 -9 -16 -52 -13 -50 -41 -32 -24 17 -25 16 -22 -6 5 -40 -16
-35 -23 5 -9 54 -29 72 -22 19 3 -22 2 -57 -1 -76 -7 -35 -7 -36 -31 -20 -14
9 -25 23 -25 31 0 8 -5 11 -11 7 -8 -4 -9 1 -5 17 7 23 6 23 -8 5 -9 -11 -18
-17 -21 -14 -3 3 4 17 16 31 22 29 15 34 -26 15 -53 -24 -72 -115 -39 -184 22
-45 93 -107 140 -122 47 -14 55 -9 14 8 -40 16 -33 34 14 38 20 2 53 14 73 28
33 22 63 31 63 19 0 -3 -8 -18 -17 -33 -17 -26 -17 -26 0 -13 26 20 55 81 68
140 14 65 -1 121 -42 155 -31 27 -59 34 -59 16z m-230 -106 c-18 -21 -24 -10
-9 18 8 14 14 18 17 10 2 -7 -2 -19 -8 -28z"/>
<path d="M3372 6660 c0 -14 2 -19 5 -12 2 6 2 18 0 25 -3 6 -5 1 -5 -13z"/>
<path d="M4153 6632 c-13 -27 -45 -70 -72 -95 -56 -52 -73 -56 -158 -34 -29 8
-50 10 -47 6 8 -13 75 -29 122 -29 37 0 48 6 90 48 26 26 60 63 74 82 24 31
28 34 47 22 12 -7 21 -8 21 -4 0 9 -42 52 -51 52 -2 0 -14 -22 -26 -48z"/>
<path d="M3660 6614 c-6 -14 -10 -31 -10 -37 0 -7 -6 -37 -14 -67 -8 -30 -11
-61 -7 -68 5 -9 13 10 20 50 19 92 25 110 44 122 14 9 31 -3 97 -69 59 -58 80
-86 80 -105 0 -31 -17 -50 -45 -50 -11 0 -31 -7 -43 -16 -13 -9 -29 -14 -35
-11 -7 3 -24 -1 -38 -9 -32 -18 -36 -17 -61 8 -16 16 -23 18 -26 8 -10 -30
-90 -104 -137 -126 -27 -13 -39 -21 -25 -18 50 12 91 38 125 77 19 22 35 37
35 33 0 -4 -26 -38 -57 -74 -39 -44 -49 -60 -30 -47 15 9 31 23 35 30 4 7 24
31 45 54 31 35 41 40 53 30 11 -9 18 -8 33 5 13 12 27 15 45 10 18 -4 33 -1
44 9 9 8 34 17 55 21 27 5 37 12 37 26 0 10 3 21 8 23 4 3 43 -6 87 -19 44
-13 120 -28 168 -33 57 -6 100 -17 123 -30 39 -23 48 -26 39 -11 -14 23 -86
49 -155 56 l-75 7 38 13 c44 16 97 51 97 66 0 5 -14 -2 -31 -16 -17 -14 -43
-29 -57 -32 -15 -3 -33 -8 -41 -10 -7 -2 -49 5 -93 17 -74 20 -84 26 -152 93
-40 39 -76 79 -80 89 -3 10 -10 16 -15 12 -5 -3 -12 -1 -16 5 -3 5 -17 10 -31
10 -17 0 -27 -8 -34 -26z"/>
<path d="M3219 6603 c-22 -58 15 -163 73 -206 45 -34 113 -67 135 -66 10 0 -1
7 -24 15 -99 35 -180 151 -170 241 5 50 1 55 -14 16z"/>
<path d="M4386 6615 c4 -8 8 -15 10 -15 2 0 4 7 4 15 0 8 -4 15 -10 15 -5 0
-7 -7 -4 -15z"/>
<path d="M4320 6594 c0 -8 5 -12 10 -9 6 3 10 10 10 16 0 5 -4 9 -10 9 -5 0
-10 -7 -10 -16z"/>
<path d="M4380 6568 c0 -9 5 -20 10 -23 13 -8 13 5 0 25 -8 13 -10 13 -10 -2z"/>
<path d="M4330 6559 c0 -5 17 -44 37 -86 20 -41 39 -91 43 -111 3 -21 11 -36
17 -35 6 1 13 -11 17 -27 3 -17 10 -30 16 -30 19 0 -3 66 -56 166 -30 55 -54
108 -54 117 0 10 -4 17 -10 17 -5 0 -10 -5 -10 -11z"/>
<path d="M3588 6413 c-32 -54 -78 -92 -116 -96 l-37 -4 42 -1 c38 -2 45 2 83
46 23 26 46 55 51 65 16 28 -5 19 -23 -10z"/>
<path d="M3782 6428 c-19 -19 -14 -28 16 -28 35 0 45 9 31 27 -14 16 -31 17
-47 1z"/>
<path d="M4371 6414 c0 -11 3 -14 6 -6 3 7 2 16 -1 19 -3 4 -6 -2 -5 -13z"/>
<path d="M3680 6395 c-10 -12 -9 -16 3 -21 17 -6 37 2 37 16 0 15 -29 19 -40
5z"/>
<path d="M4380 6365 c0 -5 5 -17 10 -25 5 -8 10 -10 10 -5 0 6 -5 17 -10 25
-5 8 -10 11 -10 5z"/>
<path d="M4364 6290 c3 -72 24 -141 34 -111 2 7 -1 23 -8 36 -7 12 -10 31 -7
41 4 16 5 16 6 -3 0 -12 5 -24 10 -27 10 -7 0 39 -23 99 l-15 40 3 -75z"/>
<path d="M3337 6330 c5 -20 15 -25 26 -13 8 7 -11 33 -23 33 -5 0 -6 -9 -3
-20z"/>
<path d="M4470 6317 c0 -8 9 -22 20 -32 11 -10 20 -25 20 -34 1 -47 39 -160
65 -194 38 -48 51 -48 24 0 -12 21 -17 39 -12 40 5 2 6 29 3 60 -5 42 -12 61
-31 77 -13 12 -39 38 -56 59 -18 21 -33 31 -33 24z m110 -210 c0 -5 -4 -5 -10
-2 -5 3 -10 14 -10 23 0 15 2 15 10 2 5 -8 10 -19 10 -23z"/>
<path d="M4400 6315 c0 -16 105 -166 108 -155 2 5 -18 40 -44 77 -57 82 -64
90 -64 78z"/>
<path d="M3800 6285 c-14 -8 -31 -14 -39 -15 -25 0 -75 -46 -100 -90 l-24 -43
27 5 c16 3 29 1 32 -6 6 -15 67 -18 112 -6 17 5 32 5 32 0 0 -13 -75 -27 -98
-19 -27 10 -29 -6 -3 -21 25 -13 67 -12 108 3 38 14 161 129 144 135 -8 3 -5
9 8 19 33 23 25 30 -41 37 -35 4 -79 9 -98 12 -21 2 -45 -2 -60 -11z m0 -20
c0 -5 -76 -45 -86 -45 -17 0 22 31 50 39 17 5 32 10 34 10 1 1 2 -1 2 -4z
m100 -39 c0 -7 -92 -56 -106 -56 -33 0 -19 19 29 38 51 20 77 26 77 18z"/>
<path d="M4480 6260 c0 -8 5 -22 10 -30 9 -13 10 -13 10 0 0 8 -5 22 -10 30
-9 13 -10 13 -10 0z"/>
<path d="M4422 6225 c13 -27 81 -135 85 -135 11 0 -12 49 -40 85 -35 46 -53
65 -45 50z"/>
<path d="M4406 6175 c-7 -19 10 -55 25 -55 5 0 14 -12 20 -28 9 -27 49 -62 49
-43 0 6 -5 13 -10 16 -6 4 -20 25 -33 47 -45 82 -44 81 -51 63z"/>
<path d="M3456 6158 c-24 -33 -19 -45 5 -14 12 15 19 29 16 32 -3 3 -12 -5
-21 -18z"/>
<path d="M4376 6133 c9 -49 35 -111 41 -96 2 6 -3 25 -11 42 -9 16 -16 41 -16
55 0 14 -5 28 -11 31 -7 5 -8 -5 -3 -32z"/>
<path d="M3190 6140 c0 -11 5 -20 10 -20 6 0 10 9 10 20 0 11 -4 20 -10 20 -5
0 -10 -9 -10 -20z"/>
<path d="M4410 6098 c0 -9 5 -20 11 -24 6 -3 8 -20 5 -38 -4 -21 -1 -39 9 -51
14 -19 15 -18 9 18 -4 24 -2 37 5 37 13 0 15 -11 12 -62 -2 -23 8 -57 27 -95
26 -54 56 -200 36 -180 -5 4 -11 36 -15 70 -6 51 -19 84 -75 184 -37 68 -69
121 -71 119 -3 -2 2 -15 10 -28 9 -12 19 -40 22 -61 4 -20 12 -41 19 -45 6 -4
19 -20 29 -35 16 -25 17 -37 6 -127 -8 -73 -8 -108 0 -131 6 -18 11 -44 11
-59 0 -19 11 -38 35 -59 33 -29 51 -57 20 -31 -22 18 -19 -4 3 -24 18 -15 19
-14 22 31 4 55 4 179 0 238 -1 22 1 49 5 59 6 13 5 17 -2 13 -22 -14 -31 90
-12 139 10 28 10 28 -10 9 -21 -18 -21 -18 -21 8 0 15 -5 27 -11 27 -5 0 -8 4
-4 10 3 5 -5 19 -17 32 -13 12 -31 33 -40 47 -13 20 -18 22 -18 9z"/>
<path d="M4520 6066 c0 -8 5 -18 10 -21 6 -3 10 3 10 14 0 12 -4 21 -10 21 -5
0 -10 -6 -10 -14z"/>
<path d="M3230 6056 c0 -46 65 -244 76 -233 2 2 -5 25 -15 53 -10 27 -25 82
-32 122 -7 39 -17 72 -21 72 -4 0 -8 -6 -8 -14z"/>
<path d="M4555 6045 c4 -11 11 -33 16 -50 12 -38 59 -97 59 -74 0 9 -9 24 -20
34 -11 10 -20 28 -20 40 0 13 -9 33 -21 46 -18 21 -20 21 -14 4z"/>
<path d="M3271 6025 c-1 -35 25 -110 32 -92 3 8 -3 37 -13 64 -11 26 -19 39
-19 28z"/>
<path d="M4357 5989 c-4 -30 -6 -79 -6 -109 1 -49 3 -45 14 40 7 52 10 101 6
109 -5 8 -11 -8 -14 -40z"/>
<path d="M4600 5991 c0 -5 5 -13 10 -16 6 -3 10 -2 10 4 0 5 -4 13 -10 16 -5
3 -10 2 -10 -4z"/>
<path d="M4536 5944 c-9 -22 -7 -84 2 -84 4 0 7 23 8 50 1 54 0 59 -10 34z"/>
<path d="M3366 5895 c3 -27 12 -60 20 -72 8 -12 14 -31 14 -41 0 -11 7 -25 15
-32 19 -16 19 -8 -1 38 -9 20 -25 64 -35 97 l-19 60 6 -50z"/>
<path d="M4582 5916 c6 -14 15 -26 20 -26 10 0 -7 36 -22 45 -6 4 -5 -5 2 -19z"/>
<path d="M3310 5919 c0 -5 5 -7 10 -4 6 3 10 8 10 11 0 2 -4 4 -10 4 -5 0 -10
-5 -10 -11z"/>
<path d="M3333 5881 c8 -40 37 -101 47 -101 4 0 -1 17 -11 37 -10 21 -19 47
-19 60 0 12 -5 25 -12 29 -8 5 -9 -2 -5 -25z"/>
<path d="M4410 5903 c0 -6 5 -15 11 -19 7 -4 9 -21 5 -46 -4 -26 -3 -37 4 -33
15 9 12 68 -5 91 -8 10 -15 14 -15 7z"/>
<path d="M4556 5883 c9 -38 14 -42 14 -10 0 14 -5 29 -10 32 -7 4 -8 -3 -4
-22z"/>
<path d="M3471 5870 c14 -31 19 -36 19 -24 0 6 -7 19 -16 30 -14 18 -14 18 -3
-6z"/>
<path d="M4594 5839 c3 -14 9 -58 12 -98 4 -39 10 -73 13 -75 13 -8 -2 150
-16 174 l-14 25 5 -26z"/>
<path d="M4393 5805 c0 -27 2 -38 4 -22 2 15 2 37 0 50 -2 12 -4 0 -4 -28z"/>
<path d="M3570 5805 c0 -20 156 -190 223 -242 36 -29 95 -87 131 -130 53 -63
106 -114 106 -101 0 8 -132 149 -179 193 -105 97 -227 220 -253 255 -15 19
-27 30 -28 25z"/>
<path d="M4346 5802 c-24 -39 -37 -334 -16 -370 6 -12 10 21 10 108 0 69 5
156 10 194 10 66 9 88 -4 68z"/>
<path d="M3335 5713 c16 -38 33 -62 22 -30 -4 11 -10 30 -13 43 -3 13 -10 24
-15 24 -5 0 -2 -17 6 -37z"/>
<path d="M4642 5725 c0 -16 2 -22 5 -12 2 9 2 23 0 30 -3 6 -5 -1 -5 -18z"/>
<path d="M3460 5730 c0 -18 39 -88 54 -97 7 -4 24 -28 36 -53 12 -25 48 -79
79 -120 31 -41 56 -79 56 -83 0 -5 16 -20 36 -35 42 -32 129 -134 153 -180 19
-37 31 -42 20 -9 -14 47 -166 217 -194 217 -5 0 -7 7 -3 16 4 12 22 0 76 -53
48 -47 61 -56 39 -28 -16 22 -54 63 -84 90 -29 28 -47 43 -40 36 6 -8 12 -19
12 -25 0 -20 -38 27 -91 110 -30 48 -69 103 -86 122 -18 19 -33 43 -33 53 0
24 -10 49 -21 49 -5 0 -9 -5 -9 -10z"/>
<path d="M3380 5726 c0 -6 91 -168 110 -196 10 -14 21 -36 25 -50 14 -50 158
-240 222 -294 21 -17 30 -31 24 -35 -7 -5 8 -28 38 -62 27 -30 51 -52 53 -49
15 16 -20 77 -75 131 -44 44 -50 53 -22 31 58 -44 102 -93 115 -126 12 -32 26
-29 15 3 -7 24 -72 104 -90 111 -17 7 -87 65 -145 121 -44 43 -123 161 -118
177 2 4 -11 27 -28 52 -17 25 -50 78 -73 118 -37 63 -51 82 -51 68z m460 -660
c0 -6 -16 7 -35 29 -19 22 -34 45 -34 50 0 6 15 -8 34 -29 19 -22 35 -44 35
-50z"/>
<path d="M3420 5727 c0 -4 21 -46 47 -94 43 -81 161 -225 201 -247 17 -10 -25
40 -104 124 -32 33 -42 50 -38 66 3 12 0 25 -6 29 -9 5 -10 1 -6 -16 4 -13
-11 9 -33 50 -38 71 -61 103 -61 88z"/>
<path d="M3506 5675 c4 -8 8 -15 10 -15 2 0 4 7 4 15 0 8 -4 15 -10 15 -5 0
-7 -7 -4 -15z"/>
<path d="M4550 5661 c0 -5 5 -13 10 -16 6 -3 10 -2 10 4 0 5 -4 13 -10 16 -5
3 -10 2 -10 -4z"/>
<path d="M3410 5596 c0 -22 35 -136 42 -136 11 0 11 3 -13 73 -20 59 -29 79
-29 63z"/>
<path d="M4563 5525 c0 -38 2 -53 4 -32 2 20 2 52 0 70 -2 17 -4 1 -4 -38z"/>
<path d="M4607 5531 c-19 -53 -23 -131 -7 -131 6 0 10 24 10 54 0 29 5 67 11
85 6 18 10 34 7 36 -2 2 -11 -18 -21 -44z"/>
<path d="M3440 5554 c0 -13 44 -84 52 -84 4 0 9 -10 9 -22 1 -14 3 -17 6 -7 2
8 -8 36 -22 62 -25 44 -45 67 -45 51z"/>
<path d="M3650 5554 c0 -6 16 -26 36 -45 20 -18 40 -44 44 -56 5 -12 19 -27
30 -33 19 -10 21 -9 18 7 -2 10 -9 17 -15 16 -7 -2 -14 5 -17 15 -7 21 -96
111 -96 96z"/>
<path d="M4424 5519 c7 -61 26 -104 39 -87 6 9 7 6 4 -10 -3 -12 0 -25 6 -30
7 -4 17 -16 23 -26 5 -11 21 -26 35 -34 l24 -14 -25 24 c-14 13 -26 37 -28 53
-2 17 -15 45 -28 63 -14 17 -32 49 -40 70 l-14 37 4 -46z"/>
<path d="M3780 5499 c0 -5 9 -9 20 -9 11 0 20 2 20 4 0 2 -9 6 -20 9 -11 3
-20 1 -20 -4z"/>
<path d="M3411 5474 c0 -16 4 -38 9 -49 6 -13 7 -5 3 25 -7 53 -13 66 -12 24z"/>
<path d="M3555 5466 c10 -14 19 -26 22 -26 7 0 -17 39 -28 46 -6 3 -3 -5 6
-20z"/>
<path d="M4494 5455 c14 -22 26 -50 26 -62 0 -12 5 -25 12 -29 8 -5 9 -2 5 10
-4 10 -7 25 -7 35 0 9 -14 32 -31 51 l-30 35 25 -40z"/>
<path d="M4396 5465 c3 -11 12 -38 19 -60 7 -23 25 -58 39 -79 14 -21 26 -52
26 -67 0 -16 4 -29 9 -29 17 0 9 64 -12 93 -10 16 -35 58 -54 95 -18 37 -31
58 -27 47z"/>
<path d="M3835 5460 c3 -5 14 -10 23 -10 15 0 15 2 2 10 -20 13 -33 13 -25 0z"/>
<path d="M3598 5413 c6 -11 21 -27 34 -36 39 -26 195 -181 208 -205 6 -13 14
-21 17 -19 14 14 -79 129 -147 182 -22 17 -58 45 -81 64 -30 25 -39 29 -31 14z"/>
<path d="M3735 5410 c10 -11 20 -20 23 -20 3 0 -3 9 -13 20 -10 11 -20 20 -23
20 -3 0 3 -9 13 -20z"/>
<path d="M3450 5409 c0 -8 9 -32 19 -53 11 -21 17 -44 15 -51 -3 -7 -1 -16 5
-20 20 -12 11 43 -14 91 -14 26 -25 41 -25 33z"/>
<path d="M3480 5405 c0 -5 5 -17 10 -25 5 -8 10 -10 10 -5 0 6 -5 17 -10 25
-5 8 -10 11 -10 5z"/>
<path d="M3506 5397 c3 -10 9 -15 12 -12 3 3 0 11 -7 18 -10 9 -11 8 -5 -6z"/>
<path d="M3836 5350 c20 -28 45 -55 57 -62 11 -6 -4 17 -34 51 -29 33 -55 61
-56 61 -2 0 13 -23 33 -50z"/>
<path d="M3540 5371 c0 -5 7 -15 17 -22 15 -13 15 -12 4 9 -12 23 -21 28 -21
13z"/>
<path d="M3780 5370 c0 -5 5 -10 11 -10 5 0 7 5 4 10 -3 6 -8 10 -11 10 -2 0
-4 -4 -4 -10z"/>
<path d="M3370 5349 c0 -8 7 -24 15 -35 8 -12 19 -41 24 -65 13 -57 74 -190
95 -208 22 -19 20 1 -4 31 -11 14 -24 36 -29 49 -5 13 -16 41 -25 62 -27 61
-7 42 24 -25 17 -35 30 -54 30 -42 0 11 -16 47 -36 80 -20 32 -49 83 -65 113
-16 30 -29 47 -29 40z"/>
<path d="M3645 5340 c10 -11 20 -20 23 -20 3 0 -3 9 -13 20 -10 11 -20 20 -23
20 -3 0 3 -9 13 -20z"/>
<path d="M3530 5342 c0 -15 142 -195 159 -200 9 -3 -112 159 -155 207 -2 2 -4
-1 -4 -7z"/>
<path d="M3810 5341 c0 -6 4 -13 10 -16 6 -3 7 1 4 9 -7 18 -14 21 -14 7z"/>
<path d="M4573 5334 c-3 -8 -1 -20 6 -27 8 -8 11 -4 11 16 0 30 -7 35 -17 11z"/>
<path d="M4524 5301 c21 -23 26 -26 26 -11 0 5 -10 15 -22 21 -23 12 -23 12
-4 -10z"/>
<path d="M4420 5292 c6 -13 14 -21 18 -18 3 4 -2 14 -12 24 -18 16 -18 16 -6
-6z"/>
<path d="M3510 5290 c0 -6 8 -18 18 -28 60 -64 76 -85 60 -79 -10 4 7 -26 39
-68 31 -41 59 -73 61 -70 3 3 -16 32 -41 65 -26 33 -47 63 -47 66 0 3 21 -13
46 -35 26 -23 53 -41 60 -41 7 0 18 -8 23 -17 6 -10 11 -12 11 -6 0 7 -17 23
-37 37 -21 13 -73 60 -115 105 -43 44 -78 76 -78 71z"/>
<path d="M3481 5248 c5 -18 9 -34 9 -35 0 -2 4 -3 9 -3 6 0 6 12 -1 30 -14 41
-29 48 -17 8z"/>
<path d="M3895 5235 c27 -27 42 -50 39 -59 -3 -9 7 -23 26 -38 18 -12 40 -40
51 -60 10 -20 24 -40 30 -43 12 -8 -11 40 -48 98 -13 21 -28 35 -33 32 -5 -3
-12 0 -16 6 -4 8 -3 9 4 5 7 -4 12 -3 12 2 0 12 -88 102 -100 102 -5 0 11 -20
35 -45z"/>
<path d="M4511 5252 c-1 -32 25 -109 33 -101 5 5 -12 83 -25 114 -6 16 -8 14
-8 -13z"/>
<path d="M3640 5250 c6 -11 13 -20 16 -20 2 0 0 9 -6 20 -6 11 -13 20 -16 20
-2 0 0 -9 6 -20z"/>
<path d="M4397 5204 c3 -38 5 -84 5 -103 -1 -34 28 -104 48 -116 17 -10 11 30
-14 107 -13 40 -26 88 -30 107 -6 34 -6 34 14 16 11 -10 29 -37 41 -61 24 -51
31 -56 19 -16 -6 22 -57 100 -86 131 -1 2 0 -28 3 -65z m52 -194 c0 -8 -9 3
-19 25 -10 22 -19 47 -19 55 0 8 9 -3 19 -25 10 -22 19 -47 19 -55z"/>
<path d="M4323 5185 c4 -22 9 -66 13 -97 4 -32 11 -58 15 -58 11 0 11 -1 -6
99 -15 85 -33 131 -22 56z"/>
<path d="M4576 5205 c4 -8 8 -15 10 -15 2 0 4 7 4 15 0 8 -4 15 -10 15 -5 0
-7 -7 -4 -15z"/>
<path d="M3700 5185 c7 -9 15 -13 17 -11 7 7 -7 26 -19 26 -6 0 -6 -6 2 -15z"/>
<path d="M4480 5180 c6 -11 13 -20 16 -20 2 0 0 9 -6 20 -6 11 -13 20 -16 20
-2 0 0 -9 6 -20z"/>
<path d="M4441 5148 c-2 -26 18 -70 28 -64 11 7 35 -29 61 -91 21 -53 27 -39
7 17 -16 49 -45 90 -61 90 -7 0 -18 15 -24 33 -5 17 -10 24 -11 15z"/>
<path d="M3729 5123 c12 -18 24 -33 27 -33 9 0 -15 37 -33 51 -12 10 -11 5 6
-18z"/>
<path d="M3517 5105 c6 -46 71 -166 93 -173 10 -3 7 4 -7 20 -13 13 -23 32
-23 41 0 10 -7 20 -15 23 -8 3 -17 22 -21 42 -4 21 -13 48 -20 62 -12 24 -13
23 -7 -15z"/>
<path d="M3575 5088 c14 -29 29 -54 34 -56 5 -2 -4 22 -20 52 -38 71 -46 72
-14 4z"/>
<path d="M4499 5122 c6 -12 16 -24 22 -28 8 -4 8 -1 0 14 -6 12 -16 24 -22 28
-8 4 -8 1 0 -14z"/>
<path d="M3903 5072 c-2 -29 23 -121 38 -136 5 -6 10 -21 10 -35 1 -18 3 -20
6 -8 3 10 -7 52 -22 94 -27 79 -28 105 -1 56 8 -15 15 -23 16 -18 0 9 -37 75
-42 75 -2 0 -4 -12 -5 -28z"/>
<path d="M3625 5070 c3 -5 8 -10 11 -10 2 0 4 5 4 10 0 6 -5 10 -11 10 -5 0
-7 -4 -4 -10z"/>
<path d="M3716 5055 c4 -8 11 -15 16 -15 6 0 5 6 -2 15 -7 8 -14 15 -16 15 -2
0 -1 -7 2 -15z"/>
<path d="M4381 5065 c-2 -25 21 -84 39 -100 12 -11 16 -21 11 -25 -6 -3 7 -26
29 -50 22 -25 39 -42 40 -39 1 15 -32 68 -46 73 -8 3 -12 11 -9 17 4 5 0 18
-8 27 -9 10 -25 37 -36 62 -11 25 -20 41 -20 35z"/>
<path d="M3750 5032 c0 -16 32 -103 37 -99 5 5 -27 107 -33 107 -2 0 -4 -4 -4
-8z"/>
<path d="M4311 4863 c0 -98 4 -187 9 -198 4 -12 8 40 8 125 0 80 5 161 11 180
10 33 9 34 -5 15 -15 -19 -15 -18 -9 18 5 24 4 37 -4 37 -8 0 -11 -54 -10
-177z"/>
<path d="M3715 5010 c3 -5 8 -10 11 -10 2 0 4 5 4 10 0 6 -5 10 -11 10 -5 0
-7 -4 -4 -10z"/>
<path d="M4470 5015 c0 -17 60 -111 60 -95 0 8 -14 35 -30 60 -16 25 -30 41
-30 35z"/>
<path d="M4565 4995 c33 -55 145 -188 126 -149 -6 12 -18 24 -26 28 -9 3 -14
10 -11 15 6 8 -12 32 -79 106 l-27 30 17 -30z"/>
<path d="M4283 4995 c-3 -9 -3 -18 -1 -21 3 -3 8 4 11 16 6 23 -1 27 -10 5z"/>
<path d="M4371 4980 c0 -14 4 -32 9 -40 8 -12 10 -12 9 5 0 11 -4 29 -9 40 -8
18 -9 18 -9 -5z"/>
<path d="M3590 4986 c0 -2 7 -9 15 -16 9 -7 15 -8 15 -2 0 5 -7 12 -15 16 -8
3 -15 4 -15 2z"/>
<path d="M4000 4986 c0 -2 7 -7 16 -10 8 -3 12 -2 9 4 -6 10 -25 14 -25 6z"/>
<path d="M3536 4967 c3 -10 9 -15 12 -12 3 3 0 11 -7 18 -10 9 -11 8 -5 -6z"/>
<path d="M4629 4962 c5 -10 18 -25 27 -33 16 -12 16 -10 -1 19 -20 33 -43 46
-26 14z"/>
<path d="M3645 4937 c10 -15 20 -25 23 -22 3 3 -5 16 -17 28 l-23 22 17 -28z"/>
<path d="M4346 4911 c-4 -24 -5 -46 -2 -48 7 -7 19 63 14 79 -3 7 -8 -7 -12
-31z"/>
<path d="M4400 4927 c0 -3 9 -21 19 -39 11 -18 23 -54 26 -80 4 -27 12 -48 17
-48 5 0 7 4 3 9 -3 5 -1 12 4 15 10 6 31 -17 50 -55 20 -40 132 -181 139 -175
3 4 -6 19 -20 34 -45 48 -111 142 -105 149 4 3 -7 21 -23 40 -17 18 -41 55
-54 81 -21 42 -56 85 -56 69z"/>
<path d="M3630 4901 c14 -28 12 -36 -5 -21 -36 30 -11 -10 35 -55 45 -45 49
-52 48 -94 0 -25 -7 -64 -14 -85 -8 -22 -12 -41 -9 -44 8 -9 35 66 35 98 0 27
2 30 19 20 27 -14 38 -13 45 6 4 12 2 15 -9 10 -21 -8 -45 3 -45 20 0 8 -20
36 -45 63 -25 26 -42 50 -39 54 8 8 -6 47 -17 47 -6 0 -6 -7 1 -19z"/>
<path d="M3581 4902 c-1 -20 32 -118 36 -106 2 5 -5 34 -16 64 -11 30 -20 49
-20 42z"/>
<path d="M3840 4897 c0 -10 7 -31 15 -47 23 -44 34 -232 18 -303 -10 -45 -10
-62 -1 -77 10 -15 10 -27 1 -50 -11 -28 -2 -42 12 -20 9 15 9 111 -1 134 -5
13 -4 17 3 13 15 -9 16 132 3 220 -11 66 -50 169 -50 130z"/>
<path d="M3921 4894 c0 -11 3 -14 6 -6 3 7 2 16 -1 19 -3 4 -6 -2 -5 -13z"/>
<path d="M4369 4874 c-7 -22 11 -114 22 -114 4 0 3 17 -1 38 -5 20 -10 51 -12
67 -3 25 -4 27 -9 9z"/>
<path d="M2716 4858 c-2 -7 -7 -42 -10 -78 -4 -36 -13 -123 -20 -195 -8 -71
-12 -132 -10 -134 2 -2 14 -1 27 3 22 5 25 13 31 74 4 38 11 82 15 98 7 24 9
16 16 -48 8 -86 20 -103 57 -89 23 8 35 31 68 119 7 18 15 31 17 28 3 -2 0
-13 -6 -24 -8 -15 -6 -30 7 -61 19 -46 21 -47 117 -56 65 -5 73 -4 116 24 42
26 48 36 77 118 37 102 37 100 17 140 -14 27 -23 31 -101 47 l-87 17 -48 -41
c-50 -42 -57 -41 -39 6 13 33 1 44 -47 44 -31 0 -32 -1 -49 -75 -10 -41 -21
-75 -25 -75 -7 0 -19 56 -20 93 0 9 -4 17 -9 17 -5 0 -10 12 -12 28 -3 23 -8
27 -41 30 -24 2 -39 -1 -41 -10z m422 -104 c18 -5 15 -27 -19 -114 l-30 -80
-50 0 c-35 0 -51 4 -55 15 -8 20 54 173 75 185 14 8 41 6 79 -6z m-209 -73
c-6 -18 -13 -30 -15 -28 -2 2 1 18 7 36 6 18 13 30 15 28 2 -2 -1 -18 -7 -36z"/>
<path d="M3670 4862 c0 -5 10 -17 21 -28 22 -19 22 -19 10 3 -12 24 -31 39
-31 25z"/>
<path d="M3710 4859 c0 -8 11 -26 25 -39 14 -13 25 -18 25 -12 0 6 -6 15 -13
19 -8 4 -19 17 -25 28 -9 15 -11 16 -12 4z"/>
<path d="M4617 4846 c13 -21 57 -70 78 -86 11 -8 -2 11 -29 43 -46 55 -66 72
-49 43z"/>
<path d="M3760 4839 c0 -5 5 -7 10 -4 6 3 10 8 10 11 0 2 -4 4 -10 4 -5 0 -10
-5 -10 -11z"/>
<path d="M4027 4832 c3 -12 9 -25 14 -28 14 -8 11 10 -6 32 -13 18 -14 18 -8
-4z"/>
<path d="M4590 4835 c8 -11 28 -35 44 -53 17 -18 31 -36 30 -40 -2 -11 47 -84
52 -79 8 8 -80 139 -112 167 -21 18 -25 20 -14 5z"/>
<path d="M4582 4791 c12 -23 35 -56 51 -74 20 -23 16 -14 -14 36 -46 74 -75
104 -37 38z"/>
<path d="M4519 4803 c10 -20 47 -55 71 -68 8 -5 -3 12 -25 37 -41 47 -63 62
-46 31z"/>
<path d="M3320 4774 c-14 -36 -6 -54 23 -54 13 0 31 -6 41 -13 17 -13 16 -20
-24 -141 -29 -86 -39 -131 -33 -137 18 -18 81 -28 91 -15 8 10 14 30 61 192
l21 72 46 -10 c25 -6 48 -8 51 -5 3 3 6 20 6 38 2 38 9 35 -148 70 -55 12
-106 24 -112 26 -7 3 -17 -7 -23 -23z"/>
<path d="M4357 4745 c3 -33 9 -67 14 -75 10 -17 0 72 -12 110 -5 15 -6 1 -2
-35z"/>
<path d="M3680 4771 c0 -6 4 -13 10 -16 6 -3 7 1 4 9 -7 18 -14 21 -14 7z"/>
<path d="M3621 4753 c-1 -12 4 -25 9 -28 12 -7 12 2 0 30 -8 19 -9 19 -9 -2z"/>
<path d="M3740 4760 c0 -5 5 -10 10 -10 6 0 10 5 10 10 0 6 -4 10 -10 10 -5 0
-10 -4 -10 -10z"/>
<path d="M3812 4730 c0 -19 2 -27 5 -17 2 9 2 25 0 35 -3 9 -5 1 -5 -18z"/>
<path d="M4270 4740 c0 -14 5 -32 10 -40 8 -12 10 -10 10 10 0 14 -5 32 -10
40 -8 12 -10 10 -10 -10z"/>
<path d="M4401 4729 c-1 -15 8 -37 19 -50 14 -17 19 -20 20 -9 0 8 14 -9 30
-37 17 -29 36 -53 42 -53 7 0 5 7 -4 18 -8 9 -31 46 -51 82 -20 36 -37 57 -37
48 0 -9 5 -20 10 -23 6 -3 10 -11 10 -16 0 -21 -20 3 -29 34 -9 30 -9 31 -10
6z"/>
<path d="M4476 4728 c8 -27 49 -81 93 -122 46 -44 37 -17 -10 29 -22 22 -49
57 -60 78 -22 41 -34 49 -23 15z"/>
<path d="M3681 4724 c0 -11 3 -14 6 -6 3 7 2 16 -1 19 -3 4 -6 -2 -5 -13z"/>
<path d="M3852 4650 l1 -75 7 65 c4 36 3 69 -2 75 -4 5 -7 -25 -6 -65z"/>
<path d="M4071 4704 c0 -11 3 -14 6 -6 3 7 2 16 -1 19 -3 4 -6 -2 -5 -13z"/>
<path d="M4560 4713 c0 -7 32 -48 70 -93 39 -45 70 -90 70 -100 0 -10 5 -22
10 -25 14 -8 13 21 -1 48 -7 12 -39 54 -72 92 -34 39 -65 74 -69 80 -5 5 -8 5
-8 -2z"/>
<path d="M3657 4703 c-4 -3 -7 -11 -7 -17 0 -6 5 -5 12 2 6 6 9 14 7 17 -3 3
-9 2 -12 -2z"/>
<path d="M3681 4684 c0 -11 3 -14 6 -6 3 7 2 16 -1 19 -3 4 -6 -2 -5 -13z"/>
<path d="M3739 4683 c-1 -10 -1 -34 -1 -53 1 -32 0 -33 -8 -10 -7 21 -8 18 -8
-20 0 -25 -3 -58 -6 -75 -7 -29 -6 -28 9 5 17 35 33 170 21 170 -3 0 -7 -8 -7
-17z"/>
<path d="M3763 4640 c3 -50 0 -73 -15 -102 -24 -49 -16 -49 13 -1 19 30 23 49
21 93 -2 30 -8 60 -14 65 -7 7 -9 -10 -5 -55z"/>
<path d="M3626 4677 c3 -10 9 -15 12 -12 3 3 0 11 -7 18 -10 9 -11 8 -5 -6z"/>
<path d="M4280 4664 c0 -6 3 -14 8 -18 4 -4 13 -24 19 -44 l13 -37 -5 39 c-4
35 -35 88 -35 60z"/>
<path d="M4402 4665 c26 -86 57 -151 86 -178 85 -80 102 -100 102 -120 0 -12
5 -29 10 -37 8 -12 10 -9 10 13 0 36 -38 92 -100 145 -27 24 -50 48 -50 53 0
6 5 7 12 3 7 -4 8 -3 4 5 -4 6 -11 9 -16 6 -4 -3 -10 2 -14 10 -8 23 12 18 34
-7 59 -68 130 -142 130 -136 0 4 -14 23 -31 43 -17 19 -29 35 -25 35 11 0 57
-56 72 -86 11 -23 20 -30 33 -27 15 4 18 0 14 -19 -3 -13 0 -40 5 -59 l10 -34
2 50 c1 37 4 45 10 30 13 -31 1 -143 -23 -213 -14 -43 -18 -65 -10 -73 7 -7
12 4 16 36 4 25 13 58 22 75 8 16 16 61 17 104 2 74 2 75 -38 123 -23 26 -45
48 -50 48 -5 0 -23 14 -40 30 -49 46 -140 115 -152 115 -6 0 -9 6 -6 13 3 8
-5 25 -16 38 -12 13 -20 19 -18 14z m247 -255 c0 -10 -3 -8 -9 5 -12 27 -12
43 0 25 5 -8 9 -22 9 -30z"/>
<path d="M4680 4663 c0 -4 5 -15 10 -23 8 -13 10 -13 10 2 0 9 -4 20 -10 23
-5 3 -10 3 -10 -2z"/>
<path d="M3943 4625 c0 -22 2 -30 4 -17 2 12 2 30 0 40 -3 9 -5 -1 -4 -23z"/>
<path d="M4440 4655 c0 -5 5 -17 10 -25 5 -8 10 -10 10 -5 0 6 -5 17 -10 25
-5 8 -10 11 -10 5z"/>
<path d="M3790 4639 c0 -5 5 -7 10 -4 6 3 10 8 10 11 0 2 -4 4 -10 4 -5 0 -10
-5 -10 -11z"/>
<path d="M3797 4564 c-8 -28 -13 -62 -10 -75 3 -19 -5 -37 -31 -68 -36 -43
-44 -57 -26 -46 16 10 12 -7 -10 -40 -11 -16 -20 -34 -20 -38 0 -17 21 6 41
45 11 22 22 38 25 36 5 -5 -68 -141 -89 -166 -10 -12 -9 -14 3 -11 20 6 140
240 134 261 -3 9 0 19 6 23 5 3 10 18 9 33 l-1 27 -7 -25 c-4 -14 -10 -20 -14
-14 -3 6 -2 28 4 48 16 58 4 67 -14 10z m4 -121 c-11 -21 -61 -70 -61 -59 0 6
61 74 68 75 1 1 -2 -7 -7 -16z"/>
<path d="M4260 4574 c0 -14 4 -23 10 -19 6 3 10 15 10 26 0 10 -4 19 -10 19
-5 0 -10 -12 -10 -26z"/>
<path d="M4710 4588 c0 -9 5 -20 10 -23 13 -8 13 5 0 25 -8 13 -10 13 -10 -2z"/>
<path d="M3911 4558 c-1 -16 4 -28 9 -28 12 0 12 8 0 35 -8 18 -9 17 -9 -7z"/>
<path d="M4590 4555 c0 -4 17 -27 38 -50 20 -23 42 -50 49 -61 9 -15 9 -11 1
19 -6 20 -16 37 -21 37 -5 0 -22 14 -38 31 -16 17 -29 28 -29 24z"/>
<path d="M4671 4534 c0 -11 3 -14 6 -6 3 7 2 16 -1 19 -3 4 -6 -2 -5 -13z"/>
<path d="M3755 4500 c-5 -8 -4 -15 3 -18 6 -2 8 -11 5 -20 -4 -13 -3 -14 6 -6
8 7 9 19 3 34 -7 18 -11 20 -17 10z"/>
<path d="M4276 4473 c10 -40 14 -41 14 -5 0 18 -5 32 -10 32 -6 0 -8 -11 -4
-27z"/>
<path d="M4726 4467 c3 -10 9 -15 12 -12 3 3 0 11 -7 18 -10 9 -11 8 -5 -6z"/>
<path d="M3737 4463 c-4 -3 -7 -13 -7 -22 1 -13 3 -13 11 2 11 19 8 33 -4 20z"/>
<path d="M4700 4463 c0 -6 5 -15 11 -18 6 -4 14 -17 19 -29 5 -12 9 -15 9 -6
0 8 -8 26 -19 40 -11 14 -20 20 -20 13z"/>
<path d="M3852 4440 c0 -14 2 -19 5 -12 2 6 2 18 0 25 -3 6 -5 1 -5 -13z"/>
<path d="M3831 4434 c0 -11 3 -14 6 -6 3 7 2 16 -1 19 -3 4 -6 -2 -5 -13z"/>
<path d="M4466 4403 c13 -20 24 -46 24 -59 0 -13 4 -24 9 -24 22 0 -17 103
-43 113 -9 4 -6 -7 10 -30z"/>
<path d="M4764 4361 c1 -55 2 -60 10 -32 5 19 5 44 -1 64 -8 28 -9 24 -9 -32z"/>
<path d="M3823 4392 c-1 -10 -19 -45 -41 -78 -66 -100 -85 -145 -64 -157 4 -3
8 6 8 20 1 13 18 48 37 77 40 60 77 130 77 146 0 18 -16 11 -17 -8z"/>
<path d="M4550 4391 c0 -6 4 -13 10 -16 6 -3 7 1 4 9 -7 18 -14 21 -14 7z"/>
<path d="M3870 4375 c-7 -23 -5 -103 3 -89 4 8 6 33 4 57 -2 23 -5 38 -7 32z"/>
<path d="M4528 4358 c7 -7 12 -27 12 -45 0 -23 5 -33 15 -33 15 0 19 11 15 40
-2 19 -30 50 -44 50 -6 0 -5 -5 2 -12z"/>
<path d="M3821 4312 c-18 -27 -25 -53 -27 -97 l-2 -60 11 55 c7 30 20 67 30
82 10 15 17 34 15 42 -2 10 -11 3 -27 -22z"/>
<path d="M4634 4237 c0 -62 -4 -130 -8 -152 -6 -39 -6 -39 8 -15 16 27 23 244
8 267 -4 6 -7 -39 -8 -100z"/>
<path d="M4610 4293 c0 -12 5 -25 10 -28 13 -8 13 15 0 35 -8 12 -10 11 -10
-7z"/>
<path d="M3646 4283 c-6 -14 -5 -15 5 -6 7 7 10 15 7 18 -3 3 -9 -2 -12 -12z"/>
<path d="M5101 4274 c0 -11 3 -14 6 -6 3 7 2 16 -1 19 -3 4 -6 -2 -5 -13z"/>
<path d="M4750 4263 c0 -11 7 -26 15 -33 8 -7 15 -20 16 -29 0 -9 3 -11 5 -6
2 6 -5 28 -16 50 -14 28 -20 33 -20 18z"/>
<path d="M2997 4218 c-25 -85 -28 -136 -9 -149 16 -10 16 -10 0 -5 -15 4 -17
-5 -15 -87 0 -51 -2 -98 -7 -105 -11 -19 2 -32 33 -32 15 0 76 -13 134 -30 59
-16 110 -30 113 -30 3 0 4 19 2 41 -3 40 -5 42 -53 60 -27 10 -69 23 -93 29
l-42 11 6 67 c3 37 13 99 21 137 29 142 30 131 -13 138 -61 10 -61 10 -77 -45z"/>
<path d="M3762 4230 c-7 -11 -13 -52 -14 -92 0 -40 -3 -58 -5 -40 -2 17 -8 32
-14 32 -12 0 -11 -32 2 -67 l11 -28 14 34 c8 20 12 47 9 62 -4 15 -1 46 5 69
13 48 10 58 -8 30z"/>
<path d="M3830 4210 c-17 -53 -9 -59 12 -9 9 21 13 41 9 44 -5 2 -14 -14 -21
-35z"/>
<path d="M4510 4224 c-13 -34 -13 -39 5 -24 8 7 12 17 8 23 -4 6 2 8 15 5 25
-7 30 7 6 16 -23 9 -24 8 -34 -20z"/>
<path d="M4672 4228 c-1 -14 -5 -35 -8 -45 -5 -14 -4 -15 5 -7 7 7 11 26 8 45
-3 28 -4 29 -5 7z"/>
<path d="M2673 4227 c-26 -41 -35 -96 -40 -257 -5 -154 -4 -177 11 -189 19
-16 24 -7 28 54 3 46 21 52 28 9 4 -24 10 -29 33 -29 26 -1 27 1 27 51 0 29
-4 56 -10 59 -5 3 -10 20 -10 36 0 16 -7 45 -15 64 -7 19 -15 73 -16 120 -2
58 -7 86 -16 89 -7 3 -16 0 -20 -7z m14 -253 c-3 -4 -13 -4 -22 0 -13 5 -14
10 -4 28 l12 23 10 -23 c6 -12 7 -25 4 -28z"/>
<path d="M3630 4214 c-7 -16 -13 -42 -16 -59 -3 -18 4 -8 16 24 11 30 18 57
15 59 -2 3 -9 -8 -15 -24z"/>
<path d="M4600 4230 c0 -5 5 -10 11 -10 5 0 7 5 4 10 -3 6 -8 10 -11 10 -2 0
-4 -4 -4 -10z"/>
<path d="M4586 4193 c-8 -19 2 -136 14 -167 4 -11 6 26 6 82 -1 98 -6 121 -20
85z"/>
<path d="M4721 4164 c0 -11 3 -14 6 -6 3 7 2 16 -1 19 -3 4 -6 -2 -5 -13z"/>
<path d="M3387 4164 c-9 -3 -15 -9 -12 -14 3 -4 -6 -11 -19 -14 -30 -7 -40
-35 -61 -170 -15 -98 -15 -105 1 -125 10 -11 21 -18 26 -15 4 3 5 -2 2 -10 -3
-8 0 -24 6 -36 9 -17 14 -19 26 -9 10 8 14 8 14 0 0 -15 66 -41 107 -41 28 0
34 3 29 16 -4 11 -2 15 7 11 7 -3 27 7 44 22 27 22 33 37 44 102 12 72 11 78
-9 111 -15 24 -22 51 -22 86 0 47 -3 53 -29 67 -31 16 -124 27 -154 19z m111
-85 c17 -6 32 -20 36 -32 6 -24 -25 -228 -34 -222 -3 2 -12 0 -18 -4 -7 -4
-34 -2 -59 4 -42 11 -46 15 -50 46 -2 18 4 70 13 114 21 102 41 119 112 94z"/>
<path d="M4465 4139 c-11 -17 1 -21 15 -4 8 9 8 15 2 15 -6 0 -14 -5 -17 -11z"/>
<path d="M3787 4123 c-4 -3 -7 -13 -7 -22 1 -13 3 -13 11 2 11 19 8 33 -4 20z"/>
<path d="M4526 4114 c-6 -15 -4 -15 11 -3 10 7 20 15 22 16 2 2 -3 3 -11 3 -9
0 -19 -7 -22 -16z"/>
<path d="M3801 4092 c-16 -37 2 -110 35 -149 30 -35 42 -23 15 16 -12 16 -28
46 -36 66 -14 31 -14 39 0 65 9 17 11 30 6 30 -5 0 -14 -13 -20 -28z"/>
<path d="M3829 4097 c-15 -34 -4 -90 25 -124 l23 -26 11 46 12 46 52 3 c46 3
52 6 61 31 5 16 7 30 5 32 -2 2 -43 7 -91 10 -85 6 -87 6 -98 -18z"/>
<path d="M3591 4100 c-2 -8 -4 -24 -6 -35 -2 -11 5 -38 16 -60 l19 -40 -6 35
c-17 95 -22 114 -23 100z"/>
<path d="M3613 4065 c14 -49 40 -115 43 -112 7 7 -24 109 -36 120 -10 10 -11
8 -7 -8z"/>
<path d="M3650 4044 c0 -8 5 -12 10 -9 6 3 10 10 10 16 0 5 -4 9 -10 9 -5 0
-10 -7 -10 -16z"/>
<path d="M4450 4049 c0 -5 5 -7 10 -4 6 3 10 8 10 11 0 2 -4 4 -10 4 -5 0 -10
-5 -10 -11z"/>
<path d="M4547 3998 c8 -44 13 -48 13 -10 0 17 -4 34 -10 37 -6 4 -7 -6 -3
-27z"/>
<path d="M4616 4001 c-13 -24 -14 -35 -4 -56 6 -14 16 -25 22 -25 6 0 5 5 -2
12 -15 15 -15 61 0 76 6 6 9 14 6 18 -4 3 -14 -8 -22 -25z"/>
<path d="M4429 3993 c-13 -16 -12 -17 4 -4 9 7 17 15 17 17 0 8 -8 3 -21 -13z"/>
<path d="M4634 3979 c-3 -6 -1 -16 5 -22 8 -8 11 -5 11 11 0 24 -5 28 -16 11z"/>
<path d="M4580 3936 c0 -8 5 -18 10 -21 6 -3 10 1 10 9 0 8 -4 18 -10 21 -5 3
-10 -1 -10 -9z"/>
<path d="M3780 3921 c0 -11 12 -23 30 -31 32 -13 38 -28 18 -48 -18 -18 -38
-15 -38 6 0 11 3 13 8 5 5 -8 13 -9 22 -3 13 8 12 12 -5 24 -11 9 -24 14 -29
13 -11 -4 -45 -127 -45 -164 -1 -18 5 -23 23 -23 13 0 31 3 40 6 22 8 20 25
-1 17 -15 -5 -16 -3 -5 8 6 7 13 22 13 34 1 20 1 20 6 0 6 -24 35 72 37 120 1
26 -2 30 -22 28 -13 -2 -25 4 -28 12 -9 21 -24 19 -24 -4z m20 -127 c0 -22
-19 -56 -29 -50 -13 8 0 66 15 66 8 0 14 -7 14 -16z"/>
<path d="M4640 3880 c0 -8 5 -22 10 -30 9 -13 10 -13 10 0 0 8 -5 22 -10 30
-9 13 -10 13 -10 0z"/>
<path d="M4650 3786 c0 -2 7 -7 16 -10 8 -3 12 -2 9 4 -6 10 -25 14 -25 6z"/>
<path d="M4703 3668 c-1 -31 0 -32 10 -10 7 15 7 26 0 33 -7 7 -10 -1 -10 -23z"/>
<path d="M4668 3627 c-3 -19 -2 -25 4 -19 6 6 8 18 6 28 -3 14 -5 12 -10 -9z"/>
<path d="M4830 3639 c0 -5 5 -7 10 -4 6 3 10 8 10 11 0 2 -4 4 -10 4 -5 0 -10
-5 -10 -11z"/>
<path d="M4757 3623 c-4 -3 -7 -11 -7 -17 0 -6 5 -5 12 2 6 6 9 14 7 17 -3 3
-9 2 -12 -2z"/>
<path d="M4790 3610 c0 -5 7 -7 15 -4 8 4 15 8 15 10 0 2 -7 4 -15 4 -8 0 -15
-4 -15 -10z"/>
<path d="M2864 3582 c-5 -4 -19 -23 -30 -42 -18 -31 -20 -50 -18 -165 l3 -130
50 -47 c43 -42 86 -64 79 -40 -4 9 39 52 52 52 13 0 18 28 25 157 5 105 -4
163 -25 163 -4 0 -13 14 -20 30 -11 27 -17 30 -59 30 -25 0 -51 -4 -57 -8z
m57 -94 c4 -83 4 -178 -1 -198 -10 -39 -33 122 -25 170 6 37 24 56 26 28z"/>
<path d="M4813 3558 c-18 -9 -40 -38 -31 -42 2 -1 16 11 32 26 31 31 31 32 -1
16z"/>
<path d="M3066 3528 c-4 -18 -7 -44 -8 -58 0 -14 -7 -94 -14 -179 -8 -85 -13
-155 -11 -156 1 -1 17 -7 36 -14 46 -15 54 -6 63 82 4 39 9 82 12 94 2 12 8
69 12 127 l7 106 -36 15 c-50 21 -54 20 -61 -17z"/>
<path d="M4840 3543 c1 -12 50 -46 50 -35 0 6 -11 17 -25 26 -14 9 -25 13 -25
9z"/>
<path d="M2684 3532 c-32 -21 -38 -58 -36 -206 2 -123 6 -154 22 -186 23 -46
40 -53 87 -37 46 15 54 42 46 149 l-6 79 -35 -3 c-29 -2 -37 -8 -45 -32 -8
-25 -6 -31 13 -46 28 -21 24 -64 -6 -68 -19 -3 -21 3 -27 80 -11 138 -9 178 9
185 10 4 20 0 26 -10 5 -10 21 -17 35 -17 24 0 25 2 21 45 -3 25 -11 52 -18
60 -13 16 -67 20 -86 7z"/>
<path d="M3204 3494 c5 -22 3 -41 -5 -50 -7 -9 -9 -30 -6 -59 4 -25 2 -47 -3
-50 -6 -4 -10 -25 -9 -48 1 -43 -6 -103 -16 -148 -5 -20 -2 -27 20 -37 55 -25
53 -28 71 146 6 60 7 62 24 47 11 -10 21 -38 25 -70 3 -30 11 -57 16 -61 6 -3
8 -12 5 -19 -3 -8 1 -19 9 -25 7 -6 11 -19 8 -30 -5 -20 13 -34 63 -44 l32 -7
7 83 c4 46 16 137 27 203 18 114 18 120 2 132 -10 7 -32 13 -50 13 l-31 0 -7
-70 c-4 -38 -11 -70 -17 -70 -5 0 -9 4 -9 9 0 24 -47 111 -60 112 -10 0 -11 2
-3 6 30 12 -40 73 -84 73 -12 0 -14 -7 -9 -36z"/>
<path d="M4806 3514 c-5 -14 -4 -15 9 -4 17 14 19 20 6 20 -5 0 -12 -7 -15
-16z"/>
<path d="M4828 3494 c-37 -19 -35 -26 2 -13 17 6 30 15 30 20 0 11 1 11 -32
-7z"/>
<path d="M3585 3440 c-10 -11 -27 -20 -37 -20 -22 0 -22 0 -38 -115 -22 -163
-23 -192 -6 -198 9 -4 16 -13 16 -21 0 -28 56 -63 111 -69 47 -6 58 -3 99 23
44 29 46 32 58 101 7 40 11 74 9 76 -7 6 -128 26 -132 21 -3 -2 -8 -19 -11
-37 -6 -27 -4 -33 15 -38 25 -6 30 -53 6 -53 -8 0 -15 -4 -15 -9 0 -10 -58 3
-71 16 -5 5 -1 61 8 125 l17 118 32 6 c40 7 74 -3 74 -21 0 -17 37 -28 71 -23
25 3 42 48 19 48 -7 0 -10 6 -7 13 10 26 -19 44 -88 56 -38 7 -79 14 -91 16
-13 3 -28 -3 -39 -15z"/>
<path d="M4805 3439 c-4 -6 -5 -12 -2 -15 2 -3 7 2 10 11 7 17 1 20 -8 4z"/>
<path d="M4057 3402 c-30 -14 -40 -25 -48 -57 -6 -22 -17 -58 -24 -80 -17 -53
-37 -147 -40 -182 -1 -15 -3 -47 -3 -71 -2 -35 -6 -44 -26 -52 -16 -6 -27 -20
-31 -41 -4 -18 -20 -61 -36 -96 -26 -57 -31 -63 -58 -63 -28 0 -34 -7 -66 -67
-20 -38 -33 -59 -29 -48 19 57 31 85 37 91 15 16 5 24 -28 24 -28 0 -36 -4
-40 -22 -2 -13 -10 -48 -17 -78 l-13 -55 -44 -3 c-43 -3 -44 -3 -38 25 3 15 9
56 12 89 l7 62 -33 -2 c-37 -2 -34 5 -60 -143 -10 -58 -10 -75 1 -88 10 -12
10 -15 -3 -15 -8 0 -17 -13 -21 -32 -7 -35 0 -50 14 -28 7 12 12 12 22 2 23
-23 38 -14 38 24 0 31 2 35 15 24 8 -7 21 -10 29 -7 17 7 36 -11 36 -36 0 -15
6 -18 38 -15 36 3 37 4 34 38 -2 19 2 46 7 60 11 25 11 25 9 -5 -3 -75 1 -95
22 -95 18 0 20 5 14 39 l-6 39 71 33 c48 23 69 38 66 48 -7 17 40 61 66 61 11
0 34 -7 52 -16 21 -12 32 -13 35 -5 7 20 53 13 59 -9 6 -22 7 -22 123 -39 71
-11 98 -8 153 14 9 4 17 11 17 16 0 6 -8 5 -19 -1 -27 -14 -41 -13 -41 5 0 10
-10 15 -27 15 -16 0 -35 6 -44 13 -14 11 -15 15 -4 31 8 10 18 15 24 11 24
-14 9 14 -16 30 -25 17 -26 17 -19 0 17 -46 -41 -57 -126 -25 -61 23 -100 25
-128 8 -30 -19 -74 1 -78 34 -3 22 4 31 43 54 41 24 46 31 43 55 -3 15 -1 26
3 24 4 -3 7 5 7 18 2 68 18 97 54 97 17 0 50 9 73 21 35 18 47 32 72 88 60
132 81 198 74 233 -6 30 -12 34 -66 50 -74 20 -90 20 -138 0z m111 -78 c15
-10 20 -20 14 -27 -5 -7 -24 -49 -42 -94 -33 -85 -53 -111 -83 -110 -15 0 -16
7 -11 51 3 28 12 68 20 89 7 20 10 37 6 37 -4 0 -14 -17 -21 -37 -27 -76 -32
-86 -36 -81 -6 5 52 158 67 175 14 18 59 16 86 -3z m-398 -675 c-14 -26 -18
-24 -12 6 2 14 8 22 13 19 5 -3 5 -14 -1 -25z m-37 -9 c-3 -11 -7 -20 -9 -20
-2 0 -4 9 -4 20 0 11 4 20 9 20 5 0 7 -9 4 -20z"/>
<path d="M4781 3378 c-10 -30 -9 -31 4 -14 8 11 15 26 15 33 0 22 -8 14 -19
-19z"/>
<path d="M4311 3296 c-12 -35 -42 -113 -67 -172 -62 -148 -61 -140 -23 -153
18 -6 36 -8 39 -4 4 5 23 49 44 98 58 141 54 135 57 90 1 -22 3 -53 5 -70 2
-16 3 -59 4 -93 0 -54 4 -67 23 -83 30 -25 35 -24 43 9 4 15 20 55 35 89 33
73 89 239 89 263 0 15 -46 49 -53 39 -2 -2 -19 -45 -37 -96 -19 -51 -35 -91
-37 -89 -3 3 -11 110 -12 168 -1 31 -6 40 -31 53 -47 25 -56 19 -79 -49z"/>
<path d="M4760 3314 c0 -8 5 -12 10 -9 6 3 10 10 10 16 0 5 -4 9 -10 9 -5 0
-10 -7 -10 -16z"/>
<path d="M4725 3159 c-4 -6 -5 -12 -2 -15 2 -3 7 2 10 11 7 17 1 20 -8 4z"/>
<path d="M5700 3125 c-16 -19 -10 -19 26 0 25 13 26 15 8 15 -12 0 -27 -7 -34
-15z"/>
<path d="M4700 3090 c0 -5 5 -10 11 -10 5 0 7 5 4 10 -3 6 -8 10 -11 10 -2 0
-4 -4 -4 -10z"/>
<path d="M6130 2989 c0 -5 5 -7 10 -4 6 3 10 8 10 11 0 2 -4 4 -10 4 -5 0 -10
-5 -10 -11z"/>
<path d="M4015 2980 c-3 -5 -2 -10 4 -10 5 0 13 5 16 10 3 6 2 10 -4 10 -5 0
-13 -4 -16 -10z"/>
<path d="M6095 2970 c-18 -8 -17 -9 8 -9 16 -1 26 3 22 9 -3 6 -7 10 -8 9 -1
0 -11 -4 -22 -9z"/>
<path d="M4681 2914 c0 -11 3 -14 6 -6 3 7 2 16 -1 19 -3 4 -6 -2 -5 -13z"/>
<path d="M2592 2883 c-38 -4 -43 -7 -40 -26 4 -30 37 -34 57 -8 10 14 31 23
56 26 l40 5 -35 -11 c-19 -6 -44 -19 -56 -30 -11 -10 -27 -19 -35 -19 -8 0
-21 -5 -29 -11 -11 -8 -3 -9 30 -4 24 3 49 10 55 14 5 4 19 11 30 13 11 3 29
9 40 14 19 7 19 7 3 -13 -24 -27 -22 -45 8 -66 31 -23 36 -19 37 30 2 33 5 38
27 38 19 0 26 6 28 25 3 20 1 22 -10 12 -11 -8 -23 -8 -53 3 -39 14 -68 15
-153 8z"/>
<path d="M2857 2873 c-14 -3 -17 -13 -15 -36 2 -26 9 -32 37 -39 18 -5 35 -8
37 -6 9 9 21 88 13 88 -5 0 -9 -6 -9 -14 0 -8 -5 -18 -11 -21 -6 -4 -9 0 -7
11 3 19 -14 25 -45 17z"/>
<path d="M4550 2850 c-6 -12 -9 -24 -7 -27 3 -2 11 5 17 17 6 12 9 24 7 27 -3
2 -11 -5 -17 -17z"/>
<path d="M4148 2848 c6 -6 18 -8 28 -6 14 3 12 5 -9 10 -19 3 -25 2 -19 -4z"/>
<path d="M4369 2843 c-13 -16 -12 -17 4 -4 9 7 17 15 17 17 0 8 -8 3 -21 -13z"/>
<path d="M4016 2841 c-4 -5 20 -15 51 -21 32 -7 75 -15 95 -20 21 -4 68 -28
105 -52 91 -60 111 -70 131 -66 13 3 8 9 -16 22 -25 13 -32 22 -27 34 19 46
-11 72 -90 79 -116 9 -226 22 -234 28 -5 3 -12 1 -15 -4z m329 -61 c17 -7 15
-9 -12 -9 -18 -1 -33 4 -33 9 0 12 17 12 45 0z"/>
<path d="M4575 2830 c-10 -11 -16 -22 -13 -25 3 -3 13 4 23 15 10 11 16 22 13
25 -3 3 -13 -4 -23 -15z"/>
<path d="M3177 2833 c-4 -3 -7 -21 -7 -39 0 -35 21 -54 59 -54 11 0 22 -4 25
-8 2 -4 -1 -53 -9 -109 -7 -56 -10 -116 -6 -135 6 -29 11 -33 42 -36 l35 -3
12 78 c6 43 14 101 18 130 l6 52 48 -6 c48 -5 48 -5 55 28 6 26 3 35 -11 46
-10 7 -24 11 -30 9 -6 -2 -58 9 -115 25 -116 32 -113 32 -122 22z"/>
<path d="M4486 2815 c-10 -15 -12 -25 -5 -25 6 0 9 -7 5 -15 -3 -8 0 -15 5
-15 7 0 9 9 6 22 -4 12 -1 28 5 35 6 8 9 16 6 19 -3 2 -13 -7 -22 -21z"/>
<path d="M4530 2793 c0 -13 5 -23 10 -23 13 0 13 11 0 30 -8 12 -10 11 -10 -7z"/>
<path d="M4400 2766 c0 -2 12 -11 26 -21 17 -11 25 -12 22 -4 -4 11 -48 34
-48 25z"/>
<path d="M3907 2749 c8 -8 16 -8 30 0 16 9 14 10 -11 11 -22 0 -27 -3 -19 -11z"/>
<path d="M2093 2711 c-22 -9 -55 -30 -72 -48 -33 -35 -84 -127 -74 -136 3 -4
-2 -18 -12 -33 -14 -21 -15 -28 -4 -35 7 -4 16 -4 19 1 3 5 12 5 20 0 20 -13
140 -13 140 0 0 6 -5 10 -11 10 -6 0 -1 12 10 26 25 31 27 46 6 38 -19 -8 -20
10 -1 25 11 9 15 9 18 -1 3 -7 15 6 26 29 19 36 20 41 5 36 -11 -4 -14 -3 -9
5 4 7 13 12 20 12 14 0 27 63 17 79 -9 13 -52 10 -98 -8z m34 -51 c-11 -19
-27 -27 -27 -14 0 15 22 44 30 39 6 -4 5 -14 -3 -25z m-36 -7 c-12 -20 -14
-14 -5 12 4 9 9 14 11 11 3 -2 0 -13 -6 -23z m-1 -47 c0 -3 -4 -8 -10 -11 -5
-3 -10 -1 -10 4 0 6 5 11 10 11 6 0 10 -2 10 -4z m-80 -46 c0 -5 -4 -10 -10
-10 -5 0 -10 5 -10 10 0 6 5 10 10 10 6 0 10 -4 10 -10z m35 -48 c-3 -3 -11 0
-18 7 -9 10 -8 11 6 5 10 -3 15 -9 12 -12z"/>
<path d="M4363 2724 c10 -11 58 -13 51 -3 -3 5 -17 9 -31 9 -15 0 -23 -3 -20
-6z"/>
<path d="M2533 2691 c-13 -11 -23 -24 -23 -30 0 -14 34 -31 63 -31 14 0 28 -7
31 -16 6 -15 8 -15 26 1 25 23 44 11 29 -17 -10 -19 -8 -25 17 -45 36 -28 48
-29 34 -2 -8 15 -8 24 0 34 9 11 20 7 61 -21 28 -19 56 -34 61 -34 6 0 8 -11
4 -24 -8 -34 12 -43 24 -11 14 36 13 45 -5 45 -9 0 -42 17 -73 37 -31 21 -67
43 -79 49 -12 7 -43 28 -69 48 -53 41 -69 43 -101 17z m42 -31 c-3 -5 -12 -10
-18 -10 -7 0 -6 4 3 10 19 12 23 12 15 0z"/>
<path d="M3968 2623 c6 -2 18 -2 25 0 6 3 1 5 -13 5 -14 0 -19 -2 -12 -5z"/>
<path d="M4125 2530 c-3 -5 1 -10 9 -10 9 0 16 5 16 10 0 6 -4 10 -9 10 -6 0
-13 -4 -16 -10z"/>
<path d="M2460 2520 c0 -5 -12 -10 -27 -10 l-28 -1 30 -16 c17 -9 33 -20 36
-25 3 -5 37 -8 75 -6 l69 3 -43 23 c-23 12 -57 22 -75 23 -30 1 -31 1 -7 9
l25 8 -27 1 c-16 1 -28 -3 -28 -9z"/>
<path d="M3760 2511 c-14 -4 -20 -10 -15 -13 10 -6 55 7 55 17 0 6 -7 5 -40
-4z"/>
<path d="M4450 2505 c-10 -12 -10 -15 4 -15 9 0 16 7 16 15 0 8 -2 15 -4 15
-2 0 -9 -7 -16 -15z"/>
<path d="M4108 2499 c13 -5 61 -12 106 -15 69 -6 84 -4 95 10 13 15 12 16 -12
7 -16 -6 -48 -6 -89 -1 -34 5 -76 9 -93 9 -29 0 -29 -1 -7 -10z"/>
<path d="M3810 2493 c-19 -3 -39 -9 -45 -15 -11 -11 231 -1 274 12 27 9 -163
10 -229 3z"/>
</g>
</svg>
